<?xml version="1.0" encoding="UTF-8"?>
<svg width="700pt" height="700pt" version="1.1" viewBox="0 0 700 700" xmlns="http://www.w3.org/2000/svg">
 <path d="m112 42v138.28h28v-110.28h110.28v-28zm337.72 0v28h110.28v110.28h28v-138.28zm-256.07 91.355v132.7h-81.648v28h476v-28h-81.73v-132.7h-28v132.7h-43.094v-132.7h-28.027v132.7h-43.203v-132.7h-28v132.7h-43.094v-132.7h-28v132.7h-43.203v-132.7zm0 189.11v104.18h28v-104.18zm71.203 0v104.18h28v-104.18zm71.094 0v104.18h28v-104.18zm71.203 0v104.18h28.027v-104.18zm71.121 0v104.18h28v-104.18zm-366.27 57.258v138.28h138.28v-28h-110.28v-110.28zm448 0v110.28h-110.28v28h138.28v-138.28z"/>
</svg>
